<svg xmlns="http://www.w3.org/2000/svg" xmlns:xlink="http://www.w3.org/1999/xlink" width="178" height="42.47" viewBox="0 0 178 42.47">
  <defs>
    <linearGradient id="linear-gradient" y1="0.5" x2="1" y2="0.5" gradientUnits="objectBoundingBox">
      <stop offset="0" stop-color="#d9d9d9"/>
      <stop offset="1" stop-color="#525252"/>
    </linearGradient>
    <linearGradient id="linear-gradient-2" x1="-2.588" y1="36.595" x2="-1.588" y2="36.595" xlink:href="#linear-gradient"/>
    <linearGradient id="linear-gradient-3" x1="-98.738" y1="1" x2="-98.738" gradientUnits="objectBoundingBox">
      <stop offset="0" stop-color="#525252"/>
      <stop offset="1" stop-color="#d9d9d9"/>
    </linearGradient>
    <linearGradient id="linear-gradient-4" y1="0.5" x2="1" y2="0.5" gradientUnits="objectBoundingBox">
      <stop offset="0" stop-color="#fff" stop-opacity="0"/>
      <stop offset="0.505" stop-color="#525252"/>
      <stop offset="0.985" stop-color="#fff" stop-opacity="0"/>
    </linearGradient>
    <linearGradient id="linear-gradient-6" x1="0.5" y1="1" x2="0.5" y2="0" xlink:href="#linear-gradient"/>
    <linearGradient id="linear-gradient-8" x1="-12.228" y1="0.5" x2="-11.228" y2="0.5" xlink:href="#linear-gradient-3"/>
    <linearGradient id="linear-gradient-9" x1="1.191" y1="0.5" x2="2.191" y2="0.5" xlink:href="#linear-gradient"/>
    <linearGradient id="linear-gradient-10" x1="0" y1="5.561" y2="5.561" xlink:href="#linear-gradient"/>
    <linearGradient id="linear-gradient-11" x1="-20.695" y1="1.145" x2="-19.695" y2="1.145" xlink:href="#linear-gradient"/>
    <linearGradient id="linear-gradient-13" x1="-91.975" y1="3.025" x2="-91.975" y2="2.025" xlink:href="#linear-gradient"/>
  </defs>
  <g id="marca-rodape" transform="translate(-376 -114)">
    <g id="Grupo_137" data-name="Grupo 137" transform="translate(376 114)">
      <g id="Grupo_132" data-name="Grupo 132" transform="translate(75.887 10.051)">
        <path id="Caminho_48" data-name="Caminho 48" d="M852.1,208.42c0,3.6,3.105,5.9,8.218,5.9,4.086,0,6.21-.851,8.358-2.747l.35.1-.864,3.057c-.07.29-.21.329-.724.464a30.028,30.028,0,0,1-7.12.793c-7.751,0-14.638-2.186-14.638-7.584,0-4.682,5.463-7.275,14.5-7.275a27.8,27.8,0,0,1,7.377.929.837.837,0,0,1,.63.484l.7,3.521-.35.077c-1.354-1.838-3.782-3.347-8.288-3.347C855.7,202.79,852.1,204.589,852.1,208.42Z" transform="translate(-845.684 -201.126)" fill="#fff"/>
        <path id="Caminho_49" data-name="Caminho 49" d="M1082.259,206.335a136.685,136.685,0,0,0,9.292,12.673c-1.611-.077-2.591-.116-3.549-.116-.98,0-1.938.039-3.525.116-.56-1.1-1.167-2.206-1.821-3.289H1071.45c-.817,1.18-1.518,2.322-2.054,3.289a16.117,16.117,0,0,0-2.195-.116,15.884,15.884,0,0,0-2.195.116c3.269-3.328,8.031-9.152,10.973-12.944-.49-.464-1.121-.581-2.661-.716v-.29c1.051,0,2.545.116,3.572.116,1.051,0,2.265-.116,2.9-.116C1081.138,205.058,1081.7,205.194,1082.259,206.335Zm-4.95,1.47c-1.307,1.683-2.965,3.812-4.506,5.94h8.638C1080.2,211.83,1078.827,209.876,1077.309,207.805Z" transform="translate(-1040.188 -204.613)" fill="#fff"/>
        <path id="Caminho_50" data-name="Caminho 50" d="M1327.117,205l-.35.1c-1.7-1.586-3.946-2.206-7.238-2.206s-5.416.619-5.416,1.838c0,3.154,14.265-.329,14.265,6.25,0,4.643-7.1,4.934-10.436,4.934a21.656,21.656,0,0,1-8.078-1.161l-.98-3.463.35-.1c1.214,1.916,4.366,2.96,8.522,2.96,3.9,0,5.977-.677,5.977-2.148,0-3.212-14.265.387-14.265-6.133,0-4.624,7.191-4.74,9.152-4.74a25.65,25.65,0,0,1,7.8.967Z" transform="translate(-1256.469 -201.126)" fill="#fff"/>
        <path id="Caminho_51" data-name="Caminho 51" d="M1506.671,206.335a136.707,136.707,0,0,0,9.292,12.673c-1.611-.077-2.591-.116-3.549-.116-.981,0-1.938.039-3.525.116-.56-1.1-1.167-2.206-1.821-3.289h-11.206c-.817,1.18-1.518,2.322-2.055,3.289a16.113,16.113,0,0,0-2.194-.116,15.881,15.881,0,0,0-2.195.116c3.269-3.328,8.031-9.152,10.973-12.944-.49-.464-1.12-.581-2.661-.716v-.29c1.051,0,2.545.116,3.572.116,1.051,0,2.265-.116,2.9-.116C1505.55,205.058,1506.111,205.194,1506.671,206.335Zm-4.949,1.47c-1.308,1.683-2.965,3.812-4.506,5.94h8.638C1504.616,211.83,1503.239,209.876,1501.722,207.805Z" transform="translate(-1416.574 -204.613)" fill="#fff"/>
      </g>
      <g id="Grupo_133" data-name="Grupo 133" transform="translate(76.103 32.673)">
        <path id="Caminho_52" data-name="Caminho 52" d="M847.629,408.953c0-1.266-.024-1.476-.036-1.866.27.006.648.018.918.018.33,0,.846-.018,1.548-.018,1.746,0,2.4.924,2.4,1.872,0,.972-.654,1.908-2.4,1.908-.768,0-1.242-.018-1.53-.018s-.66.012-.936.018C847.6,410.477,847.629,409.979,847.629,408.953Zm4.4.006c0-.81-.474-1.65-1.974-1.65-.552,0-1.494.012-2.046.024-.012.33-.024.606-.024,1.62,0,.846.018,1.3.03,1.668.552.012,1.488.03,2.04.03C851.559,410.651,852.033,409.787,852.033,408.959Z" transform="translate(-847.593 -406.403)" fill="#fff"/>
        <path id="Caminho_53" data-name="Caminho 53" d="M906.146,406.026c1.56,0,2.766.756,2.766,1.98s-1.176,2.04-2.82,2.04c-1.566,0-2.766-.756-2.766-1.986S904.484,406.026,906.146,406.026Zm-2.358,2c0,1.152.99,1.836,2.34,1.836,1.284,0,2.322-.63,2.322-1.812,0-1.158-1-1.836-2.352-1.836C904.82,406.212,903.788,406.836,903.788,408.024Z" transform="translate(-897.019 -405.462)" fill="#fff"/>
        <path id="Caminho_54" data-name="Caminho 54" d="M1001.927,406.57c-.078,0-.156.012-.234.018.012-.384.042-1.008.042-2.172h-4.494c0,1.164.036,1.788.054,2.172-.084-.006-.168-.018-.246-.018s-.156.012-.234.018c.012-.39.042-1.014.042-2.19,0-1.452-.024-1.752-.042-2.136.078.006.156.018.234.018s.162-.012.246-.018c-.024.366-.054.666-.054,1.926h4.494c-.006-1.26-.024-1.56-.042-1.926.078.006.156.018.234.018s.162-.012.246-.018c-.024.384-.048.684-.048,2.136,0,1.176.03,1.8.048,2.19C1002.089,406.582,1002.005,406.57,1001.927,406.57Z" transform="translate(-979.929 -402.124)" fill="#fff"/>
        <path id="Caminho_55" data-name="Caminho 55" d="M1063.331,401.042c1.842,0,3.252.87,3.252,2.268,0,1.416-1.38,2.334-3.306,2.334-1.842,0-3.252-.87-3.252-2.28S1061.393,401.042,1063.331,401.042Zm-2.814,2.286c0,1.332,1.188,2.124,2.8,2.124,1.53,0,2.778-.732,2.778-2.094,0-1.344-1.206-2.124-2.814-2.124C1061.747,401.234,1060.517,401.954,1060.517,403.328Z" transform="translate(-1035.986 -401.042)" fill="#fff"/>
        <path id="Caminho_56" data-name="Caminho 56" d="M1134.55,401.054c.306.258,1.65,1.41,2.79,2.31.726.564,1.524,1.212,1.992,1.578.024-1.32.042-2.43-.006-3.762a1.257,1.257,0,0,0,.3,0c-.054,1.368-.054,2.73-.012,4.464h-.066c-.306-.252-1.464-1.242-2.382-1.974-.906-.714-1.86-1.494-2.4-1.908-.018,1.278-.012,2.484.036,3.744a1.26,1.26,0,0,0-.3,0c.036-1.3.012-2.826-.024-4.464h.072Z" transform="translate(-1102.014 -401.042)" fill="#fff"/>
        <path id="Caminho_57" data-name="Caminho 57" d="M1197.782,404.4c0-1.452-.03-1.692-.042-2.136.318.006.756.018,1.086.018.366,0,.882-.018,1.7-.018,2.052,0,2.8,1.068,2.8,2.142,0,1.1-.75,2.184-2.8,2.184-.906,0-1.356-.018-1.7-.018-.324,0-.768.012-1.092.018C1197.752,406.144,1197.782,405.574,1197.782,404.4Zm5.094.006c0-.924-.552-1.914-2.346-1.914-.66,0-1.686.012-2.346.03-.018.378-.024.69-.024,1.878,0,.984.018,1.506.03,1.932.66.012,1.68.03,2.34.03C1202.324,406.36,1202.876,405.346,1202.876,404.4Z" transform="translate(-1158.118 -402.124)" fill="#fff"/>
        <path id="Caminho_58" data-name="Caminho 58" d="M1258.406,402.382c.828,1.416,1.674,2.742,2.634,4.206a3.019,3.019,0,0,0-.57,0l-.822-1.416h-3.276l-.906,1.416a1.688,1.688,0,0,0-.348,0c.906-1.332,1.932-2.808,2.82-4.17a.356.356,0,0,0-.264-.108v-.048c.072,0,.2.012.27.012.09,0,.2-.012.24-.012C1258.292,402.262,1258.352,402.268,1258.406,402.382Zm-.348.216-1.536,2.346h2.994C1259.048,404.158,1258.574,403.378,1258.058,402.6Z" transform="translate(-1209.003 -402.124)" fill="#fff"/>
        <path id="Caminho_59" data-name="Caminho 59" d="M1347.757,407.135l.06.27-.042.012c-.072-.1-.486-.114-.726-.114h-2.658c-.006.486-.03,1-.03,1.482h1.77a7.233,7.233,0,0,0,1.032-.054,2.154,2.154,0,0,0,0,.324,6.461,6.461,0,0,0-1.032-.054h-1.77c0,.546.024,1.1.03,1.65h2.508c.51,0,.81-.012.966-.18l.036.024-.144.294c-.03.072-.048.078-.126.078-.738,0-1.482-.018-2.022-.018-.51,0-1.164.012-1.668.018.012-.342.048-.888.048-1.914,0-1.266-.03-1.524-.048-1.866.522.006,1.194.018,1.716.018.474,0,1.23-.018,2.034-.018C1347.733,407.087,1347.751,407.1,1347.757,407.135Z" transform="translate(-1287.775 -406.403)" fill="#fff"/>
        <path id="Caminho_60" data-name="Caminho 60" d="M1414.344,406.51c-.078,0-.162.012-.24.018.018-.39.054-1.014.054-2.19,0-1.194-.018-1.608-.042-1.932h-1.782a.554.554,0,0,0-.462.144l-.054-.006.078-.348h.048c.144-.006.276.006.48.006h3.846c.2,0,.444,0,.474-.006h.06l.072.348-.054.006a.547.547,0,0,0-.462-.144h-1.788c-.018.324-.036.738-.036,1.932,0,1.176.036,1.8.054,2.19C1414.512,406.522,1414.422,406.51,1414.344,406.51Z" transform="translate(-1347.971 -402.063)" fill="#fff"/>
        <path id="Caminho_61" data-name="Caminho 61" d="M1468.472,401.042c1.842,0,3.252.87,3.252,2.268,0,1.416-1.38,2.334-3.306,2.334-1.842,0-3.252-.87-3.252-2.28S1466.534,401.042,1468.472,401.042Zm-2.814,2.286c0,1.332,1.188,2.124,2.8,2.124,1.53,0,2.778-.732,2.778-2.094,0-1.344-1.206-2.124-2.814-2.124C1466.888,401.234,1465.658,401.954,1465.658,403.328Z" transform="translate(-1395.282 -401.042)" fill="#fff"/>
        <path id="Caminho_62" data-name="Caminho 62" d="M1531.186,406.489c-.078,0-.156.012-.24.018.018-.24.054-.582.054-1.17,0-1.824-1.59-3.348-2.712-3.024l-.018-.054c1.362-.408,2.688.7,3.012,2.322.306-1.548,1.752-2.7,2.952-2.346l-.03.048a1.745,1.745,0,0,0-1.236.24,3.423,3.423,0,0,0-1.584,2.808c0,.606.03.954.042,1.176C1531.348,406.5,1531.264,406.489,1531.186,406.489Z" transform="translate(-1451.245 -402.043)" fill="#fff"/>
        <path id="Caminho_63" data-name="Caminho 63" d="M1587.734,401.042c1.842,0,3.252.87,3.252,2.268,0,1.416-1.38,2.334-3.306,2.334-1.842,0-3.252-.87-3.252-2.28S1585.8,401.042,1587.734,401.042Zm-2.814,2.286c0,1.332,1.188,2.124,2.8,2.124,1.53,0,2.778-.732,2.778-2.094,0-1.344-1.206-2.124-2.814-2.124C1586.15,401.234,1584.92,401.954,1584.92,403.328Z" transform="translate(-1501.049 -401.042)" fill="#fff"/>
        <path id="Caminho_64" data-name="Caminho 64" d="M1652.71,406.51c-.078,0-.162.012-.24.018.018-.39.054-1.014.054-2.19,0-1.194-.018-1.608-.042-1.932H1650.7a.554.554,0,0,0-.462.144l-.054-.006.078-.348h.048c.144-.006.276.006.48.006h3.846c.2,0,.444,0,.474-.006h.06l.072.348-.054.006a.547.547,0,0,0-.462-.144h-1.788c-.018.324-.036.738-.036,1.932,0,1.176.036,1.8.054,2.19C1652.878,406.522,1652.788,406.51,1652.71,406.51Z" transform="translate(-1559.364 -402.063)" fill="#fff"/>
        <path id="Caminho_65" data-name="Caminho 65" d="M1699.023,402.382c.828,1.416,1.674,2.742,2.634,4.206a3.019,3.019,0,0,0-.57,0l-.822-1.416h-3.276l-.906,1.416a1.69,1.69,0,0,0-.348,0c.906-1.332,1.932-2.808,2.82-4.17a.356.356,0,0,0-.264-.108v-.048c.072,0,.2.012.27.012.09,0,.2-.012.24-.012C1698.909,402.262,1698.969,402.268,1699.023,402.382Zm-.348.216-1.536,2.346h2.994C1699.665,404.158,1699.191,403.378,1698.675,402.6Z" transform="translate(-1599.76 -402.124)" fill="#fff"/>
      </g>
      <g id="Grupo_134" data-name="Grupo 134" transform="translate(76.484 27.698)">
        <path id="Caminho_66" data-name="Caminho 66" d="M949.749,357.98H850.956s28.788-.908,49.4-.908S949.749,357.98,949.749,357.98Z" transform="translate(-850.956 -357.072)" fill="url(#linear-gradient)"/>
        <path id="Caminho_67" data-name="Caminho 67" d="M850.956,365.093h98.793s-28.788.908-49.4.908S850.956,365.093,850.956,365.093Z" transform="translate(-850.956 -364.185)" fill="url(#linear-gradient-2)"/>
      </g>
      <g id="Grupo_136" data-name="Grupo 136">
        <g id="Grupo_135" data-name="Grupo 135" transform="translate(21.722 11.563)">
          <path id="Caminho_68" data-name="Caminho 68" d="M391.127,237.568c-.676,0-1.416.1-2.092.129.129-2.092.322-5.279.354-11.267H370.85c0,5.988.225,9.174.354,11.267-.708-.032-1.416-.129-2.092-.129s-1.416.1-2.092.129c.129-2.157.354-5.44.354-11.75a112.7,112.7,0,0,0-.354-11.46c.676.032,1.416.129,2.092.129s1.384-.1,2.092-.129a95.132,95.132,0,0,0-.354,10.2h18.539c-.032-6.663-.225-8.209-.354-10.2.676.032,1.416.129,2.092.129s1.384-.1,2.092-.129a112.706,112.706,0,0,0-.354,11.46c0,6.309.225,9.593.354,11.75C392.512,237.664,391.8,237.568,391.127,237.568Z" transform="translate(-367.019 -214.487)" fill="#adadad"/>
        </g>
        <path id="Caminho_69" data-name="Caminho 69" d="M367.019,214.487l2.092.129v22.952l-2.092.129.351-10.433Z" transform="translate(-345.297 -202.924)" fill="url(#linear-gradient-3)"/>
        <rect id="Retângulo_72" data-name="Retângulo 72" width="16.417" height="1.738" transform="translate(27.401 21.767)" fill="url(#linear-gradient-4)"/>
        <path id="Caminho_70" data-name="Caminho 70" d="M209.88,112.3c-19.232,0-34.823,9.507-34.823,21.235s15.591,21.235,34.823,21.235,34.822-9.507,34.822-21.235S229.112,112.3,209.88,112.3Zm2.208,39.755c-.137-4.721-.3-13.939-.3-19.526,0-6.47.107-9.044.25-10.938h11.317a3.486,3.486,0,0,1,3.074,1.287l.357-.071-.572-3.074h-.429a25.908,25.908,0,0,1-2.788.072H196.722c-1.144,0-1.966-.072-2.788-.072h-.393l-.572,3.074.357.071a3.448,3.448,0,0,1,3.074-1.287h11.282c.143,1.895.286,4.468.286,10.938,0,5.586-.182,14.8-.328,19.524-14.144-.77-25.268-8.767-25.268-18.519,0-10.262,12.316-18.58,27.508-18.58s27.508,8.319,27.508,18.58C237.388,143.3,226.248,151.3,212.089,152.058Z" transform="translate(-175.058 -112.303)" fill="#adadad"/>
        <path id="Caminho_71" data-name="Caminho 71" d="M229.129,125.538c-17.876,0-32.366,8.837-32.366,19.737s14.491,19.737,32.366,19.737,32.366-8.837,32.366-19.737S247,125.538,229.129,125.538Zm0,38.318c-15.192,0-27.508-8.319-27.508-18.58s12.316-18.58,27.508-18.58,27.508,8.319,27.508,18.58S244.322,163.856,229.129,163.856Z" transform="translate(-194.307 -124.04)" fill="url(#linear-gradient)"/>
        <path id="Caminho_72" data-name="Caminho 72" d="M498.57,177.982a25.905,25.905,0,0,1-2.788.072H482.642v33.468l2.225-1.216s-.3-12.52-.3-19.526c0-6.47.107-9.044.25-10.938h11.317a3.486,3.486,0,0,1,3.074,1.287l.357-.071L499,177.982Z" transform="translate(-447.836 -170.55)" fill="url(#linear-gradient-6)"/>
        <path id="Caminho_73" data-name="Caminho 73" d="M496.139,179.841a3.486,3.486,0,0,1,3.074,1.287l.357-.071L499,177.982h-.429a25.905,25.905,0,0,1-2.788.072H482.642l2.179,1.787Z" transform="translate(-447.836 -170.55)" fill="#adadad"/>
        <path id="Caminho_74" data-name="Caminho 74" d="M582.162,214.487l-2.092.129v22.952l2.092.129-.351-10.433Z" transform="translate(-534.239 -202.924)" fill="url(#linear-gradient-6)"/>
        <path id="Caminho_75" data-name="Caminho 75" d="M505.587,186.948a3.448,3.448,0,0,0-3.074-1.287H491.231l-1.357-1.116h14.671Z" transform="translate(-454.25 -176.37)" fill="url(#linear-gradient-8)"/>
        <path id="Caminho_76" data-name="Caminho 76" d="M336.575,186.948a3.448,3.448,0,0,1,3.074-1.287h11.282l1.357-1.116H337.617Z" transform="translate(-318.298 -176.37)" fill="url(#linear-gradient-9)"/>
        <path id="Caminho_77" data-name="Caminho 77" d="M387.248,304.665l-1.738.869H394.6v-.869Z" transform="translate(-361.695 -282.897)" fill="url(#linear-gradient-10)"/>
        <path id="Caminho_78" data-name="Caminho 78" d="M507.145,313.215l1.737-.869H499.8v.869Z" transform="translate(-463.053 -289.709)" fill="url(#linear-gradient-11)"/>
        <path id="Caminho_79" data-name="Caminho 79" d="M385.509,324.353h0c.676,0,1.384.1,2.092.129-.129-2.092-.354-5.279-.354-11.267l-1.738-.869Z" transform="translate(-361.695 -289.709)" fill="url(#linear-gradient-6)"/>
        <path id="Caminho_80" data-name="Caminho 80" d="M563.67,214.616h0c-.676,0-1.384-.1-2.092-.129.129,2.093.354,4.217.354,10.2l1.738.869Z" transform="translate(-517.84 -202.924)" fill="url(#linear-gradient-13)"/>
      </g>
    </g>
  </g>
</svg>
