<svg xmlns="http://www.w3.org/2000/svg" xmlns:xlink="http://www.w3.org/1999/xlink" width="277" height="66.09"><defs><linearGradient id="a" y1=".5" x2="1" y2=".5" gradientUnits="objectBoundingBox"><stop offset="0" stop-color="#d9d9d9"/><stop offset="1" stop-color="#525252"/></linearGradient><linearGradient id="c" x1="-2.588" y1="36.595" x2="-1.588" y2="36.595" xlink:href="#a"/><linearGradient id="b" x1="-98.738" y1="1" x2="-98.738" gradientUnits="objectBoundingBox"><stop offset="0" stop-color="#525252"/><stop offset="1" stop-color="#d9d9d9"/></linearGradient><linearGradient id="d" y1=".5" x2="1" y2=".5" gradientUnits="objectBoundingBox"><stop offset="0" stop-color="#fff" stop-opacity="0"/><stop offset=".505" stop-color="#525252"/><stop offset=".985" stop-color="#fff" stop-opacity="0"/></linearGradient><linearGradient id="e" x1=".5" y1="1" x2=".5" y2="0" xlink:href="#a"/><linearGradient id="f" x1="-12.228" y1=".5" x2="-11.228" y2=".5" xlink:href="#b"/><linearGradient id="g" x1="1.191" y1=".5" x2="2.191" y2=".5" xlink:href="#a"/><linearGradient id="h" x1="0" y1="5.561" y2="5.561" xlink:href="#a"/><linearGradient id="i" x1="-20.695" y1="1.145" x2="-19.695" y2="1.145" xlink:href="#a"/><linearGradient id="j" x1="-91.975" y1="3.025" x2="-91.975" y2="2.025" xlink:href="#a"/></defs><g data-name="Grupo 137"><g data-name="Grupo 132" fill="#fff"><path data-name="Caminho 48" d="M128.085 26.992c0 5.6 4.832 9.183 12.789 9.183 6.358 0 9.664-1.325 13.007-4.275l.545.151-1.344 4.757c-.109.452-.327.512-1.127.723a46.729 46.729 0 0 1-11.081 1.234c-12.062 0-22.78-3.4-22.78-11.8 0-7.286 8.5-11.321 22.562-11.321a43.266 43.266 0 0 1 11.48 1.445 1.3 1.3 0 0 1 .981.753l1.09 5.48-.545.12c-2.107-2.86-5.886-5.209-12.9-5.209-7.082-.003-12.677 2.798-12.677 8.759z"/><path data-name="Caminho 49" d="M183.565 18.32c5.2 7.527 8.1 12.194 14.46 19.721-2.507-.12-4.033-.18-5.522-.18-1.526 0-3.016.06-5.486.18a80.716 80.716 0 0 0-2.834-5.118h-17.439a63.32 63.32 0 0 0-3.2 5.118 25.076 25.076 0 0 0-3.415-.18 24.716 24.716 0 0 0-3.415.18c5.087-5.179 12.5-14.242 17.076-20.143-.763-.723-1.744-.9-4.142-1.114v-.452c1.635 0 3.96.181 5.559.181 1.635 0 3.524-.181 4.505-.181 2.109.001 2.981.212 3.853 1.988zm-7.7 2.288c-2.035 2.619-4.614 5.932-7.012 9.243h13.443c-1.928-2.976-4.072-6.021-6.433-9.242z"/><path data-name="Caminho 50" d="M228.036 21.663l-.545.151c-2.652-2.469-6.14-3.432-11.263-3.432s-8.429.963-8.429 2.86c0 4.908 22.2-.512 22.2 9.725 0 7.226-11.045 7.678-16.24 7.678-6.867 0-9.41-.783-12.571-1.807l-1.526-5.389.545-.151c1.889 2.981 6.794 4.607 13.261 4.607 6.067 0 9.3-1.054 9.3-3.342 0-5-22.2.6-22.2-9.545 0-7.2 11.19-7.377 14.242-7.377a39.915 39.915 0 0 1 12.135 1.505z"/><path data-name="Caminho 51" d="M258.302 18.32c5.2 7.527 8.1 12.194 14.46 19.721-2.507-.12-4.033-.18-5.522-.18-1.526 0-3.015.06-5.486.18a80.22 80.22 0 0 0-2.834-5.118h-17.439a63.04 63.04 0 0 0-3.2 5.118 25.07 25.07 0 0 0-3.415-.18 24.713 24.713 0 0 0-3.415.18c5.086-5.179 12.5-14.242 17.076-20.143-.763-.723-1.744-.9-4.142-1.114v-.452c1.635 0 3.96.181 5.559.181 1.635 0 3.524-.181 4.505-.181 2.109.001 2.986.212 3.853 1.988zm-7.7 2.288c-2.035 2.619-4.614 5.932-7.012 9.243h13.445c-1.93-2.976-4.074-6.021-6.435-9.242z"/></g><g data-name="Grupo 133" fill="#fff"><path data-name="Caminho 52" d="M118.486 54.815c0-1.97-.037-2.3-.056-2.9.42.009 1.008.028 1.429.028.513 0 1.316-.028 2.409-.028 2.717 0 3.735 1.438 3.735 2.913 0 1.513-1.018 2.969-3.735 2.969-1.2 0-1.933-.028-2.381-.028s-1.027.019-1.457.028c.019-.61.056-1.385.056-2.982zm6.854.01c0-1.26-.738-2.568-3.072-2.568-.859 0-2.325.019-3.184.037-.019.513-.037.943-.037 2.521 0 1.317.028 2.017.047 2.6.859.019 2.316.047 3.175.047 2.333-.005 3.068-1.349 3.068-2.638z"/><path data-name="Caminho 53" d="M132.633 51.724c2.428 0 4.3 1.176 4.3 3.081s-1.83 3.175-4.388 3.175c-2.437 0-4.3-1.176-4.3-3.091s1.801-3.165 4.388-3.165zm-3.67 3.109c0 1.793 1.541 2.857 3.641 2.857 2 0 3.614-.98 3.614-2.82 0-1.8-1.559-2.857-3.66-2.857-1.989 0-3.595.972-3.595 2.82z"/><path data-name="Caminho 54" d="M152.662 57.765c-.121 0-.243.019-.364.028.018-.6.065-1.569.065-3.38h-6.994c0 1.811.056 2.782.084 3.38-.131-.009-.261-.028-.383-.028s-.243.019-.364.028c.019-.607.065-1.578.065-3.408 0-2.26-.037-2.727-.065-3.324.121.009.243.028.364.028s.252-.019.383-.028c-.037.569-.084 1.036-.084 3h6.994c-.009-1.961-.037-2.428-.065-3 .121.009.243.028.364.028s.252-.019.383-.028c-.037.6-.075 1.064-.075 3.324 0 1.83.047 2.8.075 3.408-.13-.009-.261-.028-.383-.028z"/><path data-name="Caminho 55" d="M160.983 50.846c2.867 0 5.061 1.354 5.061 3.529 0 2.2-2.147 3.632-5.145 3.632-2.867 0-5.061-1.354-5.061-3.548s2.129-3.613 5.145-3.613zm-4.379 3.557c0 2.073 1.849 3.305 4.361 3.305 2.381 0 4.323-1.139 4.323-3.259 0-2.092-1.877-3.305-4.379-3.305-2.396.001-4.305 1.121-4.305 3.26z"/><path data-name="Caminho 56" d="M169.061 50.865c.476.4 2.568 2.194 4.342 3.595 1.13.878 2.372 1.886 3.1 2.456.037-2.054.065-3.782-.01-5.854a1.954 1.954 0 0 0 .467 0c-.084 2.129-.084 4.248-.019 6.947h-.1c-.476-.392-2.278-1.933-3.707-3.072-1.41-1.111-2.895-2.325-3.735-2.969-.028 1.989-.019 3.866.056 5.826a1.956 1.956 0 0 0-.467 0c.056-2.017.019-4.4-.037-6.947h.112z"/><path data-name="Caminho 57" d="M180.154 54.385c0-2.26-.046-2.633-.065-3.324.495.009 1.177.028 1.69.028.569 0 1.373-.028 2.652-.028 3.193 0 4.361 1.662 4.361 3.333 0 1.709-1.167 3.4-4.361 3.4-1.41 0-2.11-.028-2.642-.028-.5 0-1.2.019-1.7.028.019-.695.065-1.579.065-3.409zm7.928.009c0-1.438-.859-2.979-3.651-2.979-1.027 0-2.624.019-3.651.047-.028.588-.037 1.074-.037 2.923 0 1.531.028 2.343.047 3.006 1.027.019 2.614.047 3.641.047 2.792 0 3.651-1.578 3.651-3.039z"/><path data-name="Caminho 58" d="M195.31 51.248c1.288 2.2 2.605 4.267 4.1 6.545a4.7 4.7 0 0 0-.887 0l-1.279-2.2h-5.1l-1.41 2.2a2.625 2.625 0 0 0-.542 0c1.41-2.073 3.007-4.37 4.389-6.489a.554.554 0 0 0-.411-.168v-.075c.112 0 .308.019.42.019.14 0 .308-.019.374-.019.168 0 .262.009.346.187zm-.542.336l-2.391 3.651h4.659a85.326 85.326 0 0 0-2.268-3.651z"/><path data-name="Caminho 59" d="M211.774 51.986l.093.42-.065.019c-.112-.149-.756-.177-1.13-.177h-4.136c-.01.756-.047 1.55-.047 2.306h2.755a11.257 11.257 0 0 0 1.606-.084 3.344 3.344 0 0 0 0 .5 10.058 10.058 0 0 0-1.606-.084h-2.755c0 .85.037 1.718.047 2.568h3.9c.794 0 1.26-.018 1.5-.28l.056.038-.224.458c-.047.112-.075.121-.2.121-1.149 0-2.306-.028-3.147-.028-.794 0-1.812.019-2.6.028.019-.532.075-1.382.075-2.979 0-1.97-.047-2.372-.075-2.9.812.009 1.858.028 2.67.028.738 0 1.914-.028 3.166-.028.079-.001.107.018.117.074z"/><path data-name="Caminho 60" d="M221.718 57.765c-.121 0-.252.019-.374.028.028-.607.084-1.578.084-3.408 0-1.858-.028-2.5-.065-3.007h-2.773a.862.862 0 0 0-.719.224l-.084-.009.122-.542h.075c.224-.01.429.009.747.009h5.985c.318 0 .691 0 .738-.009h.093l.112.542-.084.009a.852.852 0 0 0-.719-.224h-2.787c-.028.5-.056 1.149-.056 3.007 0 1.83.056 2.8.084 3.408-.117-.009-.258-.028-.379-.028z"/><path data-name="Caminho 61" d="M232.327 50.846c2.867 0 5.061 1.354 5.061 3.529 0 2.2-2.147 3.632-5.145 3.632-2.866 0-5.061-1.354-5.061-3.548s2.129-3.613 5.145-3.613zm-4.379 3.557c0 2.073 1.849 3.305 4.36 3.305 2.381 0 4.323-1.139 4.323-3.259 0-2.092-1.877-3.305-4.379-3.305-2.39.001-4.304 1.121-4.304 3.26z"/><path data-name="Caminho 62" d="M242.832 57.765c-.121 0-.243.019-.373.028.028-.373.084-.906.084-1.821 0-2.839-2.474-5.21-4.22-4.706l-.028-.084c2.12-.635 4.183 1.092 4.687 3.614.476-2.409 2.726-4.2 4.594-3.651l-.047.075a2.716 2.716 0 0 0-1.924.374 5.327 5.327 0 0 0-2.465 4.37c0 .943.047 1.484.065 1.83-.121-.011-.252-.029-.373-.029z"/><path data-name="Caminho 63" d="M253.328 50.846c2.867 0 5.061 1.354 5.061 3.529 0 2.2-2.148 3.632-5.145 3.632-2.866 0-5.061-1.354-5.061-3.548s2.129-3.613 5.145-3.613zm-4.379 3.557c0 2.073 1.849 3.305 4.361 3.305 2.381 0 4.323-1.139 4.323-3.259 0-2.092-1.877-3.305-4.379-3.305-2.391.001-4.306 1.121-4.306 3.26z"/><path data-name="Caminho 64" d="M263.693 57.765c-.121 0-.252.019-.374.028.028-.607.084-1.578.084-3.408 0-1.858-.028-2.5-.065-3.007h-2.773a.863.863 0 0 0-.719.224l-.084-.009.121-.542h.075c.224-.01.429.009.747.009h5.985c.317 0 .691 0 .738-.009h.093l.112.542-.084.009a.852.852 0 0 0-.719-.224h-2.782c-.028.5-.056 1.149-.056 3.007 0 1.83.056 2.8.084 3.408-.122-.009-.262-.028-.383-.028z"/><path data-name="Caminho 65" d="M272.901 51.248c1.288 2.2 2.605 4.267 4.1 6.545a4.7 4.7 0 0 0-.887 0l-1.279-2.2h-5.1l-1.41 2.2a2.628 2.628 0 0 0-.542 0c1.41-2.073 3.007-4.37 4.389-6.489a.554.554 0 0 0-.411-.168v-.075c.112 0 .308.019.42.019.14 0 .308-.019.374-.019.168 0 .262.009.346.187zm-.542.336l-2.39 3.651h4.659a90.691 90.691 0 0 0-2.269-3.651z"/></g><g data-name="Grupo 134"><path data-name="Caminho 66" d="M1004.695 358.484H850.956s44.8-1.412 76.87-1.412 76.869 1.412 76.869 1.412z" transform="translate(-731.934 -313.969)" fill="url(#a)"/><path data-name="Caminho 67" d="M850.956 365.093h153.739s-44.8 1.413-76.87 1.413-76.869-1.413-76.869-1.413z" transform="translate(-731.934 -320.578)" fill="url(#c)"/></g><g data-name="Grupo 136"><g data-name="Grupo 135"><path data-name="Caminho 68" d="M71.32 53.907c-1.052 0-2.2.15-3.256.2.2-3.256.5-8.216.551-17.533H39.764c0 9.318.351 14.277.551 17.533-1.1-.05-2.2-.2-3.256-.2s-2.2.15-3.256.2c.2-3.356.551-8.466.551-18.285a175.367 175.367 0 0 0-.551-17.834c1.052.05 2.2.2 3.256.2s2.154-.15 3.256-.2a148.037 148.037 0 0 0-.551 15.88h28.851c-.05-10.37-.351-12.774-.551-15.88 1.052.05 2.2.2 3.256.2s2.154-.15 3.256-.2a175.382 175.382 0 0 0-.551 17.834c0 9.819.351 14.928.551 18.285-1.102-.045-2.204-.2-3.256-.2z" fill="#adadad"/></g><path data-name="Caminho 69" d="M367.019 214.487l3.256.2v35.718l-3.256.2.546-16.236z" transform="translate(-333.215 -196.493)" fill="url(#b)"/><path data-name="Retângulo 72" transform="translate(42.64 33.874)" fill="url(#d)" d="M0 0h25.547v2.705H0z"/><path data-name="Caminho 70" d="M54.19-.003C24.262-.003 0 14.792 0 33.042s24.262 33.045 54.19 33.045 54.19-14.795 54.19-33.045S84.118-.003 54.19-.003zm3.437 61.867c-.213-7.347-.461-21.692-.461-30.386 0-10.069.167-14.074.39-17.022h17.612c2 0 3.616.445 4.784 2l.556-.111-.89-4.784h-.668a40.316 40.316 0 0 1-4.339.111h-40.9c-1.78 0-3.06-.111-4.339-.111h-.612l-.89 4.784.556.111c1.113-1.558 2.781-2 4.784-2h17.557c.223 2.948.445 6.954.445 17.022 0 8.693-.283 23.036-.51 30.383-22.011-1.2-39.321-13.643-39.321-28.819 0-15.969 19.165-28.914 42.807-28.914s42.807 12.945 42.807 28.914c.002 15.191-17.334 27.642-39.368 28.825z" fill="#adadad"/><path data-name="Caminho 71" d="M247.131 125.538c-27.818 0-50.368 13.751-50.368 30.715s22.55 30.714 50.368 30.714 50.369-13.751 50.369-30.714-22.552-30.715-50.369-30.715zm0 59.629c-23.642 0-42.807-12.945-42.807-28.914s19.165-28.914 42.807-28.914 42.807 12.945 42.807 28.914-19.165 28.914-42.807 28.914z" transform="translate(-192.941 -123.207)" fill="url(#a)"/><path data-name="Caminho 72" d="M507.428 177.982a40.313 40.313 0 0 1-4.339.111h-20.447v52.082l3.463-1.893s-.461-19.483-.461-30.386c0-10.069.167-14.074.39-17.022h17.612c2 0 3.616.445 4.784 2l.556-.111-.89-4.784z" transform="translate(-428.478 -166.416)" fill="url(#e)"/><path data-name="Caminho 73" d="M75.168 14.459c2 0 3.616.445 4.784 2l.556-.111-.89-4.784h-.668a40.313 40.313 0 0 1-4.339.111H54.164l3.392 2.781z" fill="#adadad"/><path data-name="Caminho 74" d="M583.326 214.487l-3.256.2v35.718l3.256.2-.546-16.236z" transform="translate(-508.749 -196.493)" fill="url(#e)"/><path data-name="Caminho 75" d="M514.326 188.284c-1.113-1.558-2.782-2-4.784-2h-17.557l-2.111-1.737H512.7z" transform="translate(-434.436 -171.824)" fill="url(#f)"/><path data-name="Caminho 76" d="M336.575 188.284c1.113-1.558 2.781-2 4.784-2h17.557l2.111-1.737H338.2z" transform="translate(-308.133 -171.824)" fill="url(#g)"/><path data-name="Caminho 77" d="M388.215 304.665l-2.705 1.353h14.14v-1.353z" transform="translate(-348.45 -270.791)" fill="url(#h)"/><path data-name="Caminho 78" d="M511.229 313.7l2.7-1.353H499.8v1.353z" transform="translate(-442.615 -277.119)" fill="url(#i)"/><path data-name="Caminho 79" d="M385.509 331.031c1.052 0 2.154.15 3.256.2-.2-3.256-.551-8.216-.551-17.533l-2.705-1.352z" transform="translate(-348.45 -277.119)" fill="url(#e)"/><path data-name="Caminho 80" d="M564.834 214.688c-1.052 0-2.154-.15-3.256-.2.2 3.256.551 6.562.551 15.88l2.705 1.353z" transform="translate(-493.514 -196.493)" fill="url(#j)"/></g></g></svg>